<mxfile host="app.diagrams.net" agent="Mozilla/5.0 (Windows NT 10.0; Win64; x64) AppleWebKit/537.36 (KHTML, like Gecko) Chrome/140.0.0.0 Safari/537.36 Edg/140.0.0.0" version="26.2.6">
  <diagram name="第 1 页" id="h2rDmTyC2HQaxo2VkugP">
    <mxGraphModel dx="1207" dy="666" grid="1" gridSize="10" guides="1" tooltips="1" connect="1" arrows="1" fold="1" page="1" pageScale="1" pageWidth="827" pageHeight="1169" math="0" shadow="0">
      <root>
        <mxCell id="0" />
        <mxCell id="1" parent="0" />
        <mxCell id="J9ypu3LVqKwrHfiSPmnF-11" style="edgeStyle=orthogonalEdgeStyle;rounded=0;orthogonalLoop=1;jettySize=auto;html=1;entryX=0;entryY=0.5;entryDx=0;entryDy=0;" edge="1" parent="1" source="J9ypu3LVqKwrHfiSPmnF-1" target="J9ypu3LVqKwrHfiSPmnF-2">
          <mxGeometry relative="1" as="geometry" />
        </mxCell>
        <mxCell id="J9ypu3LVqKwrHfiSPmnF-1" value="" style="ellipse;whiteSpace=wrap;html=1;aspect=fixed;" vertex="1" parent="1">
          <mxGeometry x="40" y="240" width="40" height="40" as="geometry" />
        </mxCell>
        <mxCell id="J9ypu3LVqKwrHfiSPmnF-12" style="edgeStyle=orthogonalEdgeStyle;rounded=0;orthogonalLoop=1;jettySize=auto;html=1;" edge="1" parent="1" source="J9ypu3LVqKwrHfiSPmnF-2">
          <mxGeometry relative="1" as="geometry">
            <mxPoint x="220" y="260" as="targetPoint" />
          </mxGeometry>
        </mxCell>
        <mxCell id="J9ypu3LVqKwrHfiSPmnF-2" value="" style="ellipse;whiteSpace=wrap;html=1;aspect=fixed;" vertex="1" parent="1">
          <mxGeometry x="130" y="240" width="40" height="40" as="geometry" />
        </mxCell>
        <mxCell id="J9ypu3LVqKwrHfiSPmnF-20" style="rounded=0;orthogonalLoop=1;jettySize=auto;html=1;entryX=0;entryY=0.5;entryDx=0;entryDy=0;" edge="1" parent="1" source="J9ypu3LVqKwrHfiSPmnF-3" target="J9ypu3LVqKwrHfiSPmnF-4">
          <mxGeometry relative="1" as="geometry" />
        </mxCell>
        <mxCell id="J9ypu3LVqKwrHfiSPmnF-3" value="" style="ellipse;whiteSpace=wrap;html=1;aspect=fixed;" vertex="1" parent="1">
          <mxGeometry x="400" y="240" width="40" height="40" as="geometry" />
        </mxCell>
        <mxCell id="J9ypu3LVqKwrHfiSPmnF-4" value="" style="ellipse;whiteSpace=wrap;html=1;aspect=fixed;" vertex="1" parent="1">
          <mxGeometry x="494" y="260" width="40" height="40" as="geometry" />
        </mxCell>
        <mxCell id="J9ypu3LVqKwrHfiSPmnF-30" style="edgeStyle=orthogonalEdgeStyle;curved=1;rounded=0;orthogonalLoop=1;jettySize=auto;html=1;entryX=1;entryY=0.5;entryDx=0;entryDy=0;" edge="1" parent="1" source="J9ypu3LVqKwrHfiSPmnF-5" target="J9ypu3LVqKwrHfiSPmnF-27">
          <mxGeometry relative="1" as="geometry">
            <Array as="points">
              <mxPoint x="540" y="410" />
              <mxPoint x="540" y="410" />
            </Array>
          </mxGeometry>
        </mxCell>
        <mxCell id="J9ypu3LVqKwrHfiSPmnF-5" value="" style="ellipse;whiteSpace=wrap;html=1;aspect=fixed;fillColor=#d5e8d4;strokeColor=#82b366;" vertex="1" parent="1">
          <mxGeometry x="545" y="370" width="40" height="40" as="geometry" />
        </mxCell>
        <mxCell id="J9ypu3LVqKwrHfiSPmnF-23" style="edgeStyle=orthogonalEdgeStyle;curved=1;rounded=0;orthogonalLoop=1;jettySize=auto;html=1;" edge="1" parent="1" source="J9ypu3LVqKwrHfiSPmnF-6" target="J9ypu3LVqKwrHfiSPmnF-7">
          <mxGeometry relative="1" as="geometry" />
        </mxCell>
        <mxCell id="J9ypu3LVqKwrHfiSPmnF-6" value="" style="ellipse;whiteSpace=wrap;html=1;aspect=fixed;" vertex="1" parent="1">
          <mxGeometry x="360" y="390" width="40" height="40" as="geometry" />
        </mxCell>
        <mxCell id="J9ypu3LVqKwrHfiSPmnF-26" style="edgeStyle=orthogonalEdgeStyle;curved=1;rounded=0;orthogonalLoop=1;jettySize=auto;html=1;entryX=0.5;entryY=1;entryDx=0;entryDy=0;" edge="1" parent="1" source="J9ypu3LVqKwrHfiSPmnF-7" target="J9ypu3LVqKwrHfiSPmnF-14">
          <mxGeometry relative="1" as="geometry" />
        </mxCell>
        <mxCell id="J9ypu3LVqKwrHfiSPmnF-7" value="" style="ellipse;whiteSpace=wrap;html=1;aspect=fixed;" vertex="1" parent="1">
          <mxGeometry x="310" y="330" width="40" height="40" as="geometry" />
        </mxCell>
        <mxCell id="J9ypu3LVqKwrHfiSPmnF-15" style="edgeStyle=orthogonalEdgeStyle;rounded=0;orthogonalLoop=1;jettySize=auto;html=1;" edge="1" parent="1" source="J9ypu3LVqKwrHfiSPmnF-13" target="J9ypu3LVqKwrHfiSPmnF-14">
          <mxGeometry relative="1" as="geometry" />
        </mxCell>
        <mxCell id="J9ypu3LVqKwrHfiSPmnF-13" value="......" style="text;strokeColor=none;fillColor=none;html=1;fontSize=24;fontStyle=1;verticalAlign=middle;align=center;" vertex="1" parent="1">
          <mxGeometry x="220" y="240" width="50" height="40" as="geometry" />
        </mxCell>
        <mxCell id="J9ypu3LVqKwrHfiSPmnF-16" style="edgeStyle=orthogonalEdgeStyle;rounded=0;orthogonalLoop=1;jettySize=auto;html=1;" edge="1" parent="1" source="J9ypu3LVqKwrHfiSPmnF-14" target="J9ypu3LVqKwrHfiSPmnF-3">
          <mxGeometry relative="1" as="geometry" />
        </mxCell>
        <mxCell id="J9ypu3LVqKwrHfiSPmnF-14" value="" style="ellipse;whiteSpace=wrap;html=1;aspect=fixed;fillColor=#f8cecc;strokeColor=#b85450;" vertex="1" parent="1">
          <mxGeometry x="310" y="240" width="40" height="40" as="geometry" />
        </mxCell>
        <mxCell id="J9ypu3LVqKwrHfiSPmnF-31" style="edgeStyle=orthogonalEdgeStyle;curved=1;rounded=0;orthogonalLoop=1;jettySize=auto;html=1;" edge="1" parent="1" source="J9ypu3LVqKwrHfiSPmnF-27" target="J9ypu3LVqKwrHfiSPmnF-6">
          <mxGeometry relative="1" as="geometry" />
        </mxCell>
        <mxCell id="J9ypu3LVqKwrHfiSPmnF-27" value="......" style="text;strokeColor=none;fillColor=none;html=1;fontSize=24;fontStyle=1;verticalAlign=middle;align=center;" vertex="1" parent="1">
          <mxGeometry x="444" y="390" width="50" height="40" as="geometry" />
        </mxCell>
        <mxCell id="J9ypu3LVqKwrHfiSPmnF-29" value="......" style="text;strokeColor=none;fillColor=none;html=1;fontSize=24;fontStyle=1;verticalAlign=middle;align=center;rotation=45;" vertex="1" parent="1">
          <mxGeometry x="540" y="300" width="50" height="40" as="geometry" />
        </mxCell>
        <mxCell id="J9ypu3LVqKwrHfiSPmnF-33" value="" style="endArrow=classic;html=1;rounded=0;curved=1;exitX=1;exitY=0.5;exitDx=0;exitDy=0;entryX=1;entryY=0;entryDx=0;entryDy=0;" edge="1" parent="1" source="J9ypu3LVqKwrHfiSPmnF-29" target="J9ypu3LVqKwrHfiSPmnF-5">
          <mxGeometry width="50" height="50" relative="1" as="geometry">
            <mxPoint x="390" y="370" as="sourcePoint" />
            <mxPoint x="440" y="320" as="targetPoint" />
          </mxGeometry>
        </mxCell>
        <mxCell id="J9ypu3LVqKwrHfiSPmnF-34" value="a" style="text;strokeColor=none;fillColor=none;html=1;fontSize=24;fontStyle=1;verticalAlign=middle;align=center;" vertex="1" parent="1">
          <mxGeometry x="140" y="150" width="100" height="40" as="geometry" />
        </mxCell>
        <mxCell id="J9ypu3LVqKwrHfiSPmnF-37" value="" style="shape=crossbar;whiteSpace=wrap;html=1;rounded=1;" vertex="1" parent="1">
          <mxGeometry x="60" y="210" width="270" height="20" as="geometry" />
        </mxCell>
        <mxCell id="J9ypu3LVqKwrHfiSPmnF-39" value="" style="shape=crossbar;whiteSpace=wrap;html=1;rounded=1;rotation=35;" vertex="1" parent="1">
          <mxGeometry x="444" y="250" width="220" height="20" as="geometry" />
        </mxCell>
        <mxCell id="J9ypu3LVqKwrHfiSPmnF-42" value="b" style="text;strokeColor=none;fillColor=none;html=1;fontSize=24;fontStyle=1;verticalAlign=middle;align=center;" vertex="1" parent="1">
          <mxGeometry x="545" y="210" width="100" height="40" as="geometry" />
        </mxCell>
      </root>
    </mxGraphModel>
  </diagram>
</mxfile>
